# xmcd
#
# Track frame offsets:
#	150
#	18825
#	35388
#	54968
#	72888
#	89675
#	103048
#	121638
#	139480
#	157863
#
# Disc length: 2365 seconds
# Revision: 5
# Processed by: cddbd v1.5.2PL0 Copyright (c) Steve Scherf et al.
# Submitted via: dBpowerAMP V12.0
#
DISCID=79093b0a
DTITLE=Robert Cray - Strong Persuader
DYEAR=1986
DGENRE=Blues
TTITLE0=Smoking Gun
TTITLE1=I Guess I Showed Her
TTITLE2=Right Next Door (Because Of Me)
TTITLE3=Nothin' But A Woman
TTITLE4=Still Around
TTITLE5=More Than I Can Stand
TTITLE6=Foul Play
TTITLE7=I Wonder
TTITLE8=Fantasized
TTITLE9=New Blood
EXTD=
EXTT0=
EXTT1=
EXTT2=
EXTT3=
EXTT4=
EXTT5=
EXTT6=
EXTT7=
EXTT8=
EXTT9=
PLAYORDER=
